<svg width="28" height="29" viewBox="0 0 28 29" fill="none" xmlns="http://www.w3.org/2000/svg">
<path d="M14 0.957397C6.265 0.957397 0 7.22239 0 14.9574C0 21.1524 4.0075 26.3849 9.57249 28.2399C10.2725 28.3624 10.535 27.9424 10.535 27.5749C10.535 27.2424 10.5175 26.1399 10.5175 24.9674C6.99999 25.6149 6.08999 24.1099 5.80999 23.3224C5.65249 22.9199 4.97 21.6774 4.375 21.3449C3.885 21.0824 3.185 20.4349 4.3575 20.4174C5.46 20.3999 6.24749 21.4324 6.50999 21.8524C7.76999 23.9699 9.78249 23.3749 10.5875 23.0074C10.71 22.0974 11.0775 21.4849 11.48 21.1349C8.36499 20.7849 5.11 19.5774 5.11 14.2224C5.11 12.6999 5.65249 11.4399 6.54499 10.4599C6.40499 10.1099 5.91499 8.67489 6.68499 6.74989C6.68499 6.74989 7.85749 6.38239 10.535 8.18489C11.655 7.86989 12.845 7.71239 14.035 7.71239C15.225 7.71239 16.415 7.86989 17.535 8.18489C20.2125 6.36489 21.385 6.74989 21.385 6.74989C22.155 8.67489 21.665 10.1099 21.525 10.4599C22.4175 11.4399 22.96 12.6824 22.96 14.2224C22.96 19.5949 19.6875 20.7849 16.5725 21.1349C17.08 21.5724 17.5175 22.4124 17.5175 23.7249C17.5175 25.5974 17.5 27.1024 17.5 27.5749C17.5 27.9424 17.7625 28.3799 18.4625 28.2399C24.1612 26.316 27.9985 20.9722 28 14.9574C28 7.22239 21.735 0.957397 14 0.957397Z" fill="white"/>
</svg>
