<svg width="28" height="29" viewBox="0 0 28 29" fill="none" xmlns="http://www.w3.org/2000/svg">
<path d="M14 10.0666C11.6797 10.0666 9.79999 11.9469 9.79999 14.2666C9.79999 16.5868 11.6804 18.4666 14 18.4666C16.3202 18.4666 18.2 16.5862 18.2 14.2666C18.2 11.9464 16.3197 10.0666 14 10.0666ZM14 7.26659C17.8646 7.26659 21 10.3985 21 14.2666C21 18.1313 17.8681 21.2666 14 21.2666C10.1353 21.2666 6.99999 18.1346 6.99999 14.2666C6.99999 10.4019 10.1319 7.26659 14 7.26659ZM23.1 6.9154C23.1 7.88156 22.3149 8.66543 21.35 8.66543C20.3839 8.66543 19.6 7.88035 19.6 6.9154C19.6 5.95046 20.385 5.1666 21.35 5.1666C22.3136 5.16538 23.1 5.95046 23.1 6.9154ZM14 3.0666C10.5357 3.0666 9.97107 3.07577 8.3598 3.14752C7.26203 3.19905 6.52616 3.3467 5.84245 3.61214C5.23485 3.84778 4.79655 4.12917 4.32955 4.59617C3.86076 5.06496 3.57988 5.50208 3.34518 6.10996C3.07913 6.79524 2.93153 7.52995 2.88092 8.6262C2.80847 10.1719 2.8 10.7121 2.8 14.2666C2.8 17.7309 2.80917 18.2955 2.8809 19.9066C2.93247 21.0039 3.08031 21.7409 3.3451 22.423C3.58136 23.0314 3.86332 23.4707 4.32807 23.9355C4.79871 24.4055 5.23713 24.6873 5.83924 24.9197C6.53129 25.1873 7.26669 25.3351 8.35959 25.3857C9.90527 25.458 10.4455 25.4666 14 25.4666C17.4643 25.4666 18.0289 25.4573 19.64 25.3857C20.735 25.3343 21.4725 25.186 22.1564 24.9214C22.7632 24.6858 23.2039 24.4029 23.669 23.9385C24.1396 23.4671 24.4209 23.0297 24.6536 22.4262C24.9204 21.7367 25.0685 21.0003 25.1191 19.907C25.1915 18.3613 25.2 17.821 25.2 14.2666C25.2 10.8023 25.1908 10.2377 25.1191 8.62651C25.0676 7.53128 24.9193 6.79268 24.6544 6.10905C24.4194 5.50313 24.137 5.06349 23.6704 4.59617C23.2008 4.12661 22.7648 3.8463 22.1565 3.61179C21.4718 3.34595 20.736 3.19814 19.6403 3.14753C18.0947 3.07507 17.5545 3.0666 14 3.0666ZM14 0.266602C17.8033 0.266602 18.2781 0.280601 19.7715 0.350601C21.2612 0.419439 22.2775 0.655101 23.17 1.0016C24.0927 1.35744 24.8721 1.8381 25.6502 2.61626C26.4272 3.39444 26.908 4.1761 27.265 5.0966C27.6102 5.98793 27.846 7.00526 27.916 8.49509C27.9825 9.98843 28 10.4633 28 14.2666C28 18.07 27.986 18.5447 27.916 20.0381C27.8471 21.528 27.6102 22.5441 27.265 23.4366C26.9091 24.3595 26.4272 25.1387 25.6502 25.917C24.8721 26.694 24.0892 27.1746 23.17 27.5316C22.2775 27.877 21.2612 28.1126 19.7715 28.1826C18.2781 28.2491 17.8033 28.2666 14 28.2666C10.1967 28.2666 9.72182 28.2526 8.22849 28.1826C6.73866 28.1137 5.72366 27.877 4.83 27.5316C3.90832 27.1757 3.12782 26.694 2.34966 25.917C1.5715 25.1387 1.092 24.356 0.734999 23.4366C0.3885 22.5441 0.154 21.528 0.0840002 20.0381C0.0175002 18.5447 0 18.07 0 14.2666C0 10.4633 0.0140002 9.98843 0.0840002 8.49509C0.152824 7.0041 0.3885 5.9891 0.734999 5.0966C1.09082 4.17494 1.5715 3.39444 2.34966 2.61626C3.12782 1.8381 3.9095 1.3586 4.83 1.0016C5.7225 0.655101 6.73749 0.420601 8.22849 0.350601C9.72182 0.284101 10.1967 0.266602 14 0.266602Z" fill="white"/>
</svg>
