<svg width="28" height="29" viewBox="0 0 28 29" fill="none" xmlns="http://www.w3.org/2000/svg">
<path d="M15.4 25.3799C20.9248 24.691 25.2 19.978 25.2 14.2666C25.2 8.081 20.1856 3.0666 14 3.0666C7.8144 3.0666 2.8 8.081 2.8 14.2666C2.8 19.978 7.07516 24.691 12.6 25.3799V17.0666H9.79999V14.2666H12.6V11.9507C12.6 10.0786 12.7949 9.39966 13.161 8.71522C13.527 8.03077 14.0641 7.49362 14.7486 7.12757C15.2844 6.84105 15.949 6.66812 17.1104 6.59395C17.5713 6.56451 18.168 6.60206 18.9 6.7066V9.36659H18.2C16.9158 9.36659 16.3859 9.42724 16.0691 9.59665C15.8727 9.70174 15.7352 9.8392 15.63 10.0357C15.4606 10.3524 15.4 10.6665 15.4 11.9507V14.2666H18.9L18.2 17.0666H15.4V25.3799ZM14 28.2666C6.26801 28.2666 0 21.9985 0 14.2666C0 6.53461 6.26801 0.266602 14 0.266602C21.7319 0.266602 28 6.53461 28 14.2666C28 21.9985 21.7319 28.2666 14 28.2666Z" fill="white"/>
</svg>
