<svg width="20" height="21" viewBox="0 0 20 21" fill="none" xmlns="http://www.w3.org/2000/svg">
<path d="M16.375 11.239L8.68203 18.932C7.83811 19.7759 6.69351 20.25 5.50003 20.25C4.30655 20.25 3.16195 19.7759 2.31803 18.932C1.47411 18.0881 1 16.9435 1 15.75C1 14.5565 1.47411 13.4119 2.31803 12.568L13.258 1.62801C13.5367 1.34948 13.8675 1.12856 14.2315 0.977866C14.5956 0.827175 14.9857 0.749663 15.3797 0.749756C15.7737 0.749849 16.1639 0.827545 16.5278 0.978407C16.8918 1.12927 17.2225 1.35035 17.501 1.62901C17.7796 1.90768 18.0005 2.23847 18.1512 2.60252C18.3019 2.96656 18.3794 3.35672 18.3793 3.75072C18.3792 4.14472 18.3015 4.53484 18.1506 4.89881C17.9998 5.26278 17.7787 5.59348 17.5 5.87201L6.55203 16.82C6.26801 17.0923 5.88839 17.2411 5.49497 17.2361C5.10156 17.2311 4.72585 17.0717 4.44883 16.7924C4.1718 16.513 4.01564 16.1359 4.01399 15.7425C4.01234 15.349 4.16535 14.9707 4.44003 14.689L12.25 6.87901M6.56103 16.81L6.55103 16.82" stroke="#94A3B8" stroke-width="1.5" stroke-linecap="round" stroke-linejoin="round"/>
</svg>
