<svg xmlns="http://www.w3.org/2000/svg" width="48" height="17" viewBox="0 0 48 17" fill="none">
  <path fill-rule="evenodd" clip-rule="evenodd" d="M6.33787 0.5H8.86707V12.0922C7.57155 12.3372 6.61781 12.4337 5.58595 12.4337C2.49687 12.4304 0.888855 11.0504 0.888855 8.39988C0.888855 5.84612 2.59452 4.18876 5.23765 4.18876C5.64779 4.18876 5.96028 4.22101 6.33787 4.31774V0.5ZM6.33787 6.33301C6.04166 6.23628 5.79753 6.20404 5.48504 6.20404C4.20579 6.20404 3.46688 6.98435 3.46688 8.35184C3.46688 9.68321 4.17324 10.4184 5.46876 10.4184C5.7487 10.4184 5.97656 10.4026 6.33787 10.3542V6.33301ZM12.8871 4.36611V10.1701C12.8871 12.1689 12.7374 13.1301 12.2979 13.9588C11.8878 14.7556 11.3474 15.2579 10.231 15.8129L7.88404 14.7069C9.00053 14.1881 9.54088 13.7296 9.88591 13.0299C10.2472 12.3144 10.3612 11.4857 10.3612 9.30595V4.36611H12.8871ZM10.3612 0.512898H12.8904V3.08278H10.3612V0.512898ZM14.4134 4.93683C15.5302 4.4177 16.5979 4.18876 17.7632 4.18876C19.062 4.18876 19.9145 4.53055 20.2924 5.19801C20.504 5.57205 20.5724 6.05894 20.5724 7.10043V12.1886C19.4399 12.3498 18.0106 12.4656 16.9621 12.4656C14.8431 12.4656 13.8926 11.7336 13.8926 10.1088C13.8926 8.35151 15.1559 7.53896 18.2577 7.28068V6.7293C18.2577 6.27465 18.0266 6.11021 17.3886 6.11021C16.4544 6.11021 15.403 6.37139 14.4167 6.8744L14.4134 4.93683ZM18.3716 8.91869C16.6985 9.07992 16.1549 9.34142 16.1549 9.99243C16.1549 10.48 16.4674 10.7086 17.1575 10.7086C17.535 10.7086 17.8801 10.6763 18.3713 10.5957L18.3716 8.91869ZM21.8028 4.75626C23.2969 4.36611 24.527 4.18876 25.7737 4.18876C27.0692 4.18876 28.007 4.48218 28.5633 5.04969C29.087 5.58494 29.2537 6.17179 29.2537 7.42288V12.3337H26.7242V7.52283C26.7242 6.56195 26.3954 6.20404 25.4941 6.20404C25.1487 6.20404 24.8365 6.23628 24.3287 6.38461V12.334H21.8028V4.75626ZM30.2367 13.7005C31.1218 14.1552 32.0075 14.3651 32.945 14.3651C34.6018 14.3651 35.3081 13.6976 35.3081 12.1048V12.0564C34.8166 12.2982 34.3215 12.3985 33.6673 12.3985C31.4509 12.3985 30.0414 10.9507 30.0414 8.65816C30.0414 5.81098 32.1279 4.20198 35.8192 4.20198C36.9031 4.20198 37.9057 4.31484 39.1195 4.55989L38.2537 6.36558C37.5805 6.2366 38.1983 6.34623 37.6909 6.29787V6.55905L37.7234 7.61666L37.7394 8.98383C37.756 9.32594 37.756 9.66709 37.7726 10.0092V10.6925C37.7726 12.8399 37.59 13.8463 37.0496 14.6782C36.2619 15.8967 34.8983 16.5 32.9609 16.5C31.9749 16.5 31.1218 16.3546 30.2367 16.0125V13.7005ZM35.2593 6.22016H35.1779H34.9953C34.5038 6.20404 33.928 6.33301 33.5338 6.57807C32.9287 6.91986 32.6165 7.53895 32.6165 8.416C32.6165 9.66676 33.2415 10.3829 34.358 10.3829C34.7027 10.3829 34.983 10.3187 35.3085 10.2217V10.0408V9.35754C35.3085 9.06412 35.2919 8.73845 35.2919 8.39666L35.2759 7.24231L35.2593 6.41363V6.22016ZM43.0422 4.15652C45.5682 4.15652 47.1111 5.73327 47.1111 8.28703C47.1111 10.9053 45.5034 12.5462 42.941 12.5462C40.4118 12.5462 38.8523 10.9698 38.8523 8.43245C38.8565 5.79776 40.4642 4.15652 43.0422 4.15652ZM42.9901 10.5277C43.9602 10.5277 44.5331 9.73158 44.5331 8.34829C44.5331 6.98113 43.9761 6.16857 43.0067 6.16857C42.0042 6.16857 41.4306 6.965 41.4306 8.34829C41.4306 9.73158 42.0071 10.5277 42.9901 10.5277Z" fill="white"/>
</svg>
