<svg width="22" height="20" viewBox="0 0 22 20" fill="none" xmlns="http://www.w3.org/2000/svg">
<path d="M3.046 6.223C2.11046 7.32718 1.41382 8.6132 1 10C2.292 14.338 6.31 17.5 11.066 17.5C12.059 17.5 13.019 17.362 13.929 17.105M5.294 4.228C7.00665 3.09786 9.01408 2.49688 11.066 2.5C15.822 2.5 19.839 5.662 21.131 9.998C20.423 12.3673 18.903 14.4116 16.838 15.772M5.294 4.228L2.066 1M5.294 4.228L8.944 7.878M16.838 15.772L20.066 19M16.838 15.772L13.188 12.122C13.4666 11.8434 13.6876 11.5127 13.8384 11.1486C13.9892 10.7846 14.0668 10.3945 14.0668 10.0005C14.0668 9.6065 13.9892 9.21636 13.8384 8.85235C13.6876 8.48834 13.4666 8.1576 13.188 7.879C12.9094 7.6004 12.5787 7.3794 12.2146 7.22863C11.8506 7.07785 11.4605 7.00025 11.0665 7.00025C10.6725 7.00025 10.2824 7.07785 9.91835 7.22863C9.55434 7.3794 9.2236 7.6004 8.945 7.879M13.187 12.121L8.946 7.88" stroke="#0F172A" stroke-linecap="round" stroke-linejoin="round"/>
</svg>
