<svg width="86" height="29" viewBox="0 0 86 29" fill="none" xmlns="http://www.w3.org/2000/svg">
<g clip-path="url(#clip0_238_492)">
<path d="M60.0283 7.58044H53.915V28.8353H60.0283V7.58044Z" fill="#22C55E"/>
<path d="M60.0283 5.7225H53.915V6.10352e-05H60.0283V5.7225Z" fill="#22C55E"/>
<path d="M27.8359 28.6866V11.2963H49.8136V17.0187H33.8721V23.0384H49.8136V28.6866H27.8359Z" fill="#22C55E"/>
<path d="M49.8136 5.79678H27.8359V0.0743408H49.8136V5.79678Z" fill="#22C55E"/>
<path d="M7.17407 28.7609H1.06055V12.8569C5.83268 12.9065 14.7579 12.9313 15.377 12.8569C16.0102 12.7809 16.6679 12.5501 16.9247 12.2624C17.389 11.7422 17.518 11.2467 17.6212 10.7761C17.7759 9.73562 17.6212 7.72904 17.6212 7.72904C17.6212 7.72904 17.4664 6.85211 16.7699 6.31701C16.4604 6.07921 15.5833 5.8711 15.0674 5.79678H1.06055V0.0743408H15.0674C15.7897 0.0991133 17.5128 0.267566 18.6272 0.7432C20.0201 1.33774 21.4382 2.67152 22.3417 3.86453C22.9608 4.68203 23.5799 6.81248 23.6572 7.72904C23.7605 8.27402 23.9049 10.1815 23.6572 11.9651C23.3477 14.1947 21.6452 15.9783 20.0975 17.2417C18.8593 18.2524 16.3056 18.5794 15.0674 18.728H7.17407V28.7609Z" fill="#22C55E"/>
<path d="M69.6244 20.883H63.9752C63.9752 20.883 63.9277 21.6099 63.9752 22.072C63.9965 22.2762 64.0188 22.6126 64.0524 22.8152C64.1262 23.2535 64.1458 23.2835 64.285 23.707C64.3823 24.0043 64.4668 24.1626 64.5943 24.4502C64.7637 24.8325 64.9164 25.0584 65.1361 25.4163C65.3447 25.7563 65.4857 25.9355 65.7552 26.2338C66.1053 26.6218 66.3424 26.8062 66.7612 27.1256C67.1353 27.4111 67.3512 27.569 67.7672 27.7945C68.2269 28.0436 68.5099 28.1396 69.0053 28.3147C69.6249 28.5337 69.9817 28.643 70.6304 28.7606C71.1683 28.8581 71.4765 28.8882 72.0234 28.9092C73.9583 28.9836 75.0493 29.0693 76.9763 28.9092C77.5215 28.864 77.8274 28.8372 78.3693 28.7606C79.0079 28.6702 79.372 28.6312 79.9944 28.4633C80.713 28.2694 81.1173 28.135 81.7738 27.7945C82.5349 27.4001 82.9464 27.1217 83.5537 26.5311C83.8854 26.2085 84.0761 26.0227 84.3277 25.6393C84.675 25.1105 84.7958 24.7611 84.9467 24.1529C85.0737 23.6416 85.0658 23.3397 85.1016 22.8152C85.1531 22.0622 85.157 21.6357 85.1016 20.883C85.0653 20.3874 85.0664 20.1029 84.9467 19.6195C84.7963 19.0114 84.6554 18.6734 84.3277 18.1332C84.142 17.8271 84.019 17.6647 83.7858 17.39C83.462 17.0082 83.2568 16.8069 82.8575 16.4982C82.4655 16.1955 82.2133 16.065 81.7738 15.8293C81.2783 15.5633 80.9853 15.4376 80.4585 15.2348C79.9261 15.03 79.0655 14.7889 79.0655 14.7889L77.9046 14.4916L76.5116 14.1944L74.4996 13.8971L72.1783 13.5255L71.0174 13.2282C71.0174 13.2282 70.391 13.0419 70.0885 12.7823L70.0773 12.7724C69.8581 12.5844 69.7133 12.4599 69.6244 12.1878C69.5427 11.9385 69.5528 11.7709 69.6244 11.5189C69.6775 11.3311 69.7306 11.2258 69.8564 11.073C70.0751 10.8074 70.3049 10.7571 70.6304 10.6271C71.0028 10.4784 71.2399 10.4757 71.6364 10.4042C73.5674 10.0556 76.5116 10.3299 76.5116 10.3299C77.4405 10.4785 77.0926 10.4144 77.3633 10.4785C77.7497 10.5701 78.0595 10.7014 78.4465 10.9244C78.8334 11.1473 78.9106 11.296 79.0655 11.5189C79.0655 11.5189 79.2355 11.8609 79.2976 12.1135C79.3602 12.3676 79.3753 12.7823 79.3753 12.7823H84.7147C84.7147 12.7823 84.8433 11.6394 84.7147 10.9244C84.6011 10.2913 84.4686 9.93996 84.1728 9.36372C83.9692 8.96637 83.5537 8.39759 83.5537 8.39759C83.5537 8.39759 83.0963 7.70949 82.7026 7.35714C82.2553 6.95646 81.9208 6.82708 81.3874 6.53966C80.5251 6.0755 79.7824 5.72949 79.0655 5.57353C78.3486 5.41758 77.9393 5.3521 77.2084 5.27626C76.8164 5.23562 76.2024 5.20194 76.2024 5.20194C76.2024 5.20194 73.4594 5.0499 71.7136 5.20194C71.1985 5.24681 70.9083 5.26747 70.3983 5.35058C69.4734 5.5013 68.95 5.61596 68.0765 5.94511C67.3847 6.20589 66.9687 6.33376 66.3742 6.76264C65.6719 7.26939 65.3604 7.67673 64.9041 8.39759C64.4315 9.14365 64.2185 9.62011 64.0524 10.4785C63.8925 11.306 64.0524 12.5594 64.0524 12.6337C64.0524 12.708 64.1335 13.5068 64.285 14.0457C64.4192 14.5245 64.4981 14.8014 64.7492 15.2348C65.031 15.7221 65.2759 15.947 65.678 16.3496C65.9884 16.6611 66.5291 17.0928 66.5291 17.0928C66.9161 17.39 67.2254 17.5387 67.5352 17.6873C67.8444 17.8359 67.9221 17.8359 68.3863 17.9846C68.8504 18.1332 69.6708 18.4007 70.4755 18.5791C71.2808 18.7575 71.9977 18.9259 72.2555 18.9507L74.9643 19.3966C75.325 19.4709 76.2331 19.7236 76.9763 19.8425C77.2856 19.9168 77.5954 19.9236 78.0595 20.0655C78.5237 20.2073 78.8463 20.2661 79.1427 20.4371C79.5297 20.66 79.5297 21.6829 79.5297 21.8491C79.5297 21.9977 79.4525 22.5179 79.0655 22.8152C78.7921 23.0253 78.3693 23.1372 78.0595 23.1868C75.9446 23.2115 71.6208 23.2462 71.2494 23.1868C70.7853 23.1125 70.4755 22.9639 70.1662 22.8152C69.9185 22.6963 69.7021 22.072 69.6244 21.7748V20.883Z" fill="#22C55E"/>
</g>
<defs>
<clipPath id="clip0_238_492">
<rect width="85" height="29" fill="white" transform="translate(0.601074)"/>
</clipPath>
</defs>
</svg>
