<svg width="23" height="19" viewBox="0 0 23 19" fill="none" xmlns="http://www.w3.org/2000/svg">
<path d="M3.76007 7.44843C3.48502 9.55401 3.32113 11.6726 3.26907 13.7954C6.14788 14.9979 8.90425 16.4748 11.5001 18.2054C14.0962 16.4747 16.8529 14.9979 19.7321 13.7954C19.68 11.6726 19.5161 9.55401 19.2411 7.44843M19.2411 7.44843C20.1161 7.15443 21.0031 6.88243 21.8991 6.63443C18.6356 4.34668 15.152 2.39032 11.5001 0.794434C7.84807 2.39066 4.36447 4.34735 1.10107 6.63543C1.99435 6.88206 2.88068 7.15316 3.75907 7.44843C6.4277 8.34564 9.01697 9.46351 11.5001 10.7904C13.9828 9.46349 16.5728 8.34563 19.2411 7.44843ZM6.25007 12.3014C6.44899 12.3014 6.63975 12.2224 6.7804 12.0818C6.92106 11.9411 7.00007 11.7503 7.00007 11.5514C7.00007 11.3525 6.92106 11.1618 6.7804 11.0211C6.63975 10.8805 6.44899 10.8014 6.25007 10.8014C6.05116 10.8014 5.8604 10.8805 5.71974 11.0211C5.57909 11.1618 5.50007 11.3525 5.50007 11.5514C5.50007 11.7503 5.57909 11.9411 5.71974 12.0818C5.8604 12.2224 6.05116 12.3014 6.25007 12.3014ZM6.25007 12.3014V8.62643C7.94681 7.57177 9.69937 6.6097 11.5001 5.74443M4.49307 17.2944C5.05105 16.7378 5.49351 16.0764 5.79504 15.3483C6.09656 14.6201 6.25121 13.8396 6.25007 13.0514V11.5514" stroke="#94A3B8" stroke-width="1.5" stroke-linecap="round" stroke-linejoin="round"/>
</svg>
