<svg width="76" height="75" viewBox="0 0 76 75" fill="none" xmlns="http://www.w3.org/2000/svg">
<path d="M50.728 50.028C49.0565 51.6995 47.0722 53.0254 44.8884 53.93C42.7045 54.8346 40.3638 55.3002 38 55.3002C35.6362 55.3002 33.2955 54.8346 31.1116 53.93C28.9278 53.0254 26.9435 51.6995 25.272 50.028M74 37.3C74 42.0276 73.0688 46.7089 71.2597 51.0766C69.4505 55.4443 66.7988 59.4129 63.4558 62.7558C60.1129 66.0988 56.1443 68.7505 51.7766 70.5597C47.4089 72.3688 42.7276 73.3 38 73.3C33.2724 73.3 28.5911 72.3688 24.2234 70.5597C19.8557 68.7505 15.8871 66.0988 12.5442 62.7558C9.20125 59.4129 6.54951 55.4443 4.74034 51.0766C2.93117 46.7089 2 42.0276 2 37.3C2 27.7522 5.79285 18.5955 12.5442 11.8442C19.2955 5.09285 28.4522 1.3 38 1.3C47.5478 1.3 56.7045 5.09285 63.4558 11.8442C70.2072 18.5955 74 27.7522 74 37.3ZM29 28.3C29 29.956 28.328 31.3 27.5 31.3C26.672 31.3 26 29.956 26 28.3C26 26.644 26.672 25.3 27.5 25.3C28.328 25.3 29 26.644 29 28.3ZM27.5 28.3H27.532V28.36H27.5V28.3ZM50 28.3C50 29.956 49.328 31.3 48.5 31.3C47.672 31.3 47 29.956 47 28.3C47 26.644 47.672 25.3 48.5 25.3C49.328 25.3 50 26.644 50 28.3ZM48.5 28.3H48.532V28.36H48.5V28.3Z" stroke="#FAFAFA" stroke-width="2.5" stroke-linecap="round" stroke-linejoin="round"/>
</svg>
