<svg width="22" height="23" viewBox="0 0 22 23" fill="none" xmlns="http://www.w3.org/2000/svg">
<path d="M15.6135 17.023V20.5733C15.6135 21.2265 15.02 21.7567 14.2887 21.7567H2.80677C2.4554 21.7567 2.11842 21.632 1.86997 21.4101C1.62151 21.1882 1.48193 20.8871 1.48193 20.5733V7.16106C1.48193 6.5078 2.07546 5.97763 2.80677 5.97763H5.01483C5.60668 5.97727 6.19753 6.0209 6.78128 6.10807M15.6135 17.023H19.588C20.3193 17.023 20.9129 16.4928 20.9129 15.8396V10.7114C20.9129 6.0197 17.0938 2.12648 12.0806 1.37434C11.4969 1.28717 10.906 1.24354 10.3142 1.2439H8.10611C7.3748 1.2439 6.78128 1.77408 6.78128 2.42733V6.10807M15.6135 17.023H8.10611C7.75474 17.023 7.41777 16.8983 7.16931 16.6764C6.92086 16.4544 6.78128 16.1534 6.78128 15.8396V6.10807M20.9129 13.0782V11.1058C20.9129 10.1642 20.4941 9.2612 19.7487 8.59539C19.0034 7.92958 17.9925 7.55553 16.9383 7.55553H15.1719C14.8205 7.55553 14.4836 7.43085 14.2351 7.20892C13.9866 6.98698 13.8471 6.68597 13.8471 6.3721V4.79419C13.8471 4.32796 13.7443 3.8663 13.5445 3.43556C13.3448 3.00481 13.052 2.61343 12.683 2.28376C12.3139 1.95408 11.8757 1.69257 11.3935 1.51415C10.9113 1.33573 10.3945 1.2439 9.87256 1.2439H8.54772" stroke="#CBD5E1" stroke-width="1.5" stroke-linecap="round" stroke-linejoin="round"/>
</svg>
