<svg width="24" height="19" viewBox="0 0 24 19" fill="none" xmlns="http://www.w3.org/2000/svg">
<path d="M4.159 7.44892C3.88395 9.55449 3.72005 11.6731 3.668 13.7959C6.5468 14.9984 9.30318 16.4752 11.899 18.2059C14.4951 16.4752 17.2519 14.9984 20.131 13.7959C20.0789 11.6731 19.915 9.5545 19.64 7.44892M19.64 7.44892C20.515 7.15492 21.402 6.88292 22.298 6.63492C19.0346 4.34717 15.551 2.39081 11.899 0.794922C8.24699 2.39115 4.7634 4.34784 1.5 6.63592C2.39327 6.88255 3.27961 7.15365 4.158 7.44892C6.82662 8.34613 9.4159 9.46399 11.899 10.7909C14.3817 9.46398 16.9717 8.34612 19.64 7.44892ZM6.649 12.3019C6.84791 12.3019 7.03868 12.2229 7.17933 12.0823C7.31998 11.9416 7.399 11.7508 7.399 11.5519C7.399 11.353 7.31998 11.1622 7.17933 11.0216C7.03868 10.8809 6.84791 10.8019 6.649 10.8019C6.45009 10.8019 6.25932 10.8809 6.11867 11.0216C5.97802 11.1622 5.899 11.353 5.899 11.5519C5.899 11.7508 5.97802 11.9416 6.11867 12.0823C6.25932 12.2229 6.45009 12.3019 6.649 12.3019ZM6.649 12.3019V8.62692C8.34573 7.57226 10.0983 6.61019 11.899 5.74492M4.892 17.2949C5.44997 16.7383 5.89244 16.0769 6.19396 15.3488C6.49549 14.6206 6.65013 13.84 6.649 13.0519V11.5519" stroke="#22C55E" stroke-width="1.5" stroke-linecap="round" stroke-linejoin="round"/>
</svg>
