<svg width="31" height="33" viewBox="0 0 31 33" fill="none" xmlns="http://www.w3.org/2000/svg">
<path d="M20.2121 25.0626C23.3505 24.691 26.4341 23.9503 29.3989 22.856C26.8881 20.0747 25.5007 16.4594 25.5062 12.7124V11.4491C25.5062 8.76873 24.4415 6.1981 22.5461 4.30277C20.6508 2.40744 18.0802 1.34265 15.3998 1.34265C12.7194 1.34265 10.1487 2.40744 8.25341 4.30277C6.35808 6.1981 5.29329 8.76873 5.29329 11.4491V12.7124C5.29837 16.4596 3.91036 20.0749 1.39893 22.856C4.31801 23.934 7.39544 24.6836 10.5874 25.0626M20.2121 25.0626C17.0151 25.4418 13.7844 25.4418 10.5874 25.0626M20.2121 25.0626C20.4549 25.8203 20.5152 26.6247 20.3883 27.4102C20.2614 28.1957 19.9508 28.9401 19.4817 29.5828C19.0127 30.2256 18.3985 30.7485 17.6892 31.1089C16.9799 31.4694 16.1954 31.6573 15.3998 31.6573C14.6041 31.6573 13.8197 31.4694 13.1103 31.1089C12.401 30.7485 11.7868 30.2256 11.3178 29.5828C10.8488 28.9401 10.5382 28.1957 10.4112 27.4102C10.2843 26.6247 10.3447 25.8203 10.5874 25.0626" stroke="#CBD5E1" stroke-width="2" stroke-linecap="round" stroke-linejoin="round"/>
</svg>
