<svg width="65" height="84" viewBox="0 0 65 84" fill="none" xmlns="http://www.w3.org/2000/svg">
<path d="M24.75 2H6.15C3.5832 2 1.5 4.0832 1.5 6.65V77.95C1.5 80.5168 3.5832 82.6 6.15 82.6H58.85C61.4168 82.6 63.5 80.5168 63.5 77.95V40.75M24.75 2H26.3C36.1661 2 45.628 5.91927 52.6044 12.8956C59.5807 19.872 63.5 29.3339 63.5 39.2V40.75M24.75 2C28.4498 2 31.998 3.46973 34.6141 6.08586C37.2303 8.70199 38.7 12.2502 38.7 15.95V22.15C38.7 24.7168 40.7832 26.8 43.35 26.8H49.55C53.2498 26.8 56.798 28.2697 59.4141 30.8859C62.0303 33.502 63.5 37.0502 63.5 40.75M20.1 54.7L29.4 64L44.9 42.3" stroke="#FAFAFA" stroke-width="2.5" stroke-linecap="round" stroke-linejoin="round"/>
</svg>
