<svg width="20" height="21" viewBox="0 0 20 21" fill="none" xmlns="http://www.w3.org/2000/svg">
<path d="M15.8984 6V9M15.8984 9V12M15.8984 9H18.8984M15.8984 9H12.8984M10.6484 4.875C10.6484 5.77011 10.2929 6.62855 9.65992 7.26149C9.02699 7.89442 8.16854 8.25 7.27344 8.25C6.37833 8.25 5.51989 7.89442 4.88695 7.26149C4.25402 6.62855 3.89844 5.77011 3.89844 4.875C3.89844 3.97989 4.25402 3.12145 4.88695 2.48851C5.51989 1.85558 6.37833 1.5 7.27344 1.5C8.16854 1.5 9.02699 1.85558 9.65992 2.48851C10.2929 3.12145 10.6484 3.97989 10.6484 4.875ZM0.898438 17.735V17.625C0.898437 15.9342 1.57009 14.3127 2.76563 13.1172C3.96118 11.9216 5.58268 11.25 7.27344 11.25C8.96419 11.25 10.5857 11.9216 11.7812 13.1172C12.9768 14.3127 13.6484 15.9342 13.6484 17.625V17.734C11.7239 18.8931 9.51905 19.5038 7.27244 19.5C4.94144 19.5 2.76044 18.855 0.898438 17.734V17.735Z" stroke="#22C55E" stroke-width="1.5" stroke-linecap="round" stroke-linejoin="round"/>
</svg>
