<svg width="21" height="21" viewBox="0 0 21 21" fill="none" xmlns="http://www.w3.org/2000/svg">
<path d="M15.1599 3.36225L16.8469 1.67425C17.1985 1.32257 17.6755 1.125 18.1729 1.125C18.6702 1.125 19.1472 1.32257 19.4989 1.67425C19.8505 2.02592 20.0481 2.5029 20.0481 3.00025C20.0481 3.49759 19.8505 3.97457 19.4989 4.32625L8.87985 14.9452C8.35118 15.4736 7.69922 15.862 6.98285 16.0752L4.29785 16.8752L5.09785 14.1902C5.31113 13.4739 5.69949 12.8219 6.22785 12.2932L15.1599 3.36225ZM15.1599 3.36225L17.7979 6.00025M16.2979 12.8752V17.6252C16.2979 18.222 16.0608 18.7943 15.6388 19.2162C15.2169 19.6382 14.6446 19.8752 14.0479 19.8752H3.54785C2.95111 19.8752 2.37882 19.6382 1.95686 19.2162C1.5349 18.7943 1.29785 18.222 1.29785 17.6252V7.12525C1.29785 6.52851 1.5349 5.95621 1.95686 5.53426C2.37882 5.1123 2.95111 4.87525 3.54785 4.87525H8.29785" stroke="#22C55E" stroke-width="1.5" stroke-linecap="round" stroke-linejoin="round"/>
</svg>
