<svg width="75" height="75" viewBox="0 0 75 75" fill="none" xmlns="http://www.w3.org/2000/svg">
<path d="M50.228 54.572C46.8715 51.2068 42.317 49.3108 37.564 49.3C35.189 49.2885 32.8353 49.7485 30.6394 50.6535C28.4436 51.5585 26.4492 52.8904 24.772 54.572M73.5 37.3C73.5 42.0276 72.5688 46.7089 70.7597 51.0766C68.9505 55.4443 66.2988 59.4129 62.9558 62.7558C59.6129 66.0988 55.6443 68.7505 51.2766 70.5597C46.9089 72.3688 42.2276 73.3 37.5 73.3C32.7724 73.3 28.0911 72.3688 23.7234 70.5597C19.3557 68.7505 15.3871 66.0988 12.0442 62.7558C8.70125 59.4129 6.04951 55.4443 4.24034 51.0766C2.43117 46.7089 1.5 42.0276 1.5 37.3C1.5 27.7522 5.29285 18.5955 12.0442 11.8442C18.7955 5.09285 27.9522 1.3 37.5 1.3C47.0478 1.3 56.2045 5.09285 62.9558 11.8442C69.7072 18.5955 73.5 27.7522 73.5 37.3ZM28.5 28.3C28.5 29.956 27.828 31.3 27 31.3C26.172 31.3 25.5 29.956 25.5 28.3C25.5 26.644 26.172 25.3 27 25.3C27.828 25.3 28.5 26.644 28.5 28.3ZM27 28.3H27.032V28.36H27V28.3ZM49.5 28.3C49.5 29.956 48.828 31.3 48 31.3C47.172 31.3 46.5 29.956 46.5 28.3C46.5 26.644 47.172 25.3 48 25.3C48.828 25.3 49.5 26.644 49.5 28.3ZM48 28.3H48.032V28.36H48V28.3Z" stroke="#FAFAFA" stroke-width="2.5" stroke-linecap="round" stroke-linejoin="round"/>
</svg>
