<svg width="21" height="21" viewBox="0 0 21 21" fill="none" xmlns="http://www.w3.org/2000/svg">
<path d="M14.737 3.73725L16.424 2.04925C16.7757 1.69757 17.2527 1.5 17.75 1.5C18.2473 1.5 18.7243 1.69757 19.076 2.04925C19.4277 2.40092 19.6252 2.8779 19.6252 3.37525C19.6252 3.87259 19.4277 4.34957 19.076 4.70125L8.457 15.3202C7.92832 15.8486 7.27637 16.237 6.56 16.4502L3.875 17.2502L4.675 14.5652C4.88828 13.8489 5.27663 13.1969 5.805 12.6682L14.737 3.73725ZM14.737 3.73725L17.375 6.37525M15.875 13.2502V18.0002C15.875 18.597 15.6379 19.1693 15.216 19.5912C14.794 20.0132 14.2217 20.2502 13.625 20.2502H3.125C2.52826 20.2502 1.95597 20.0132 1.53401 19.5912C1.11205 19.1693 0.875 18.597 0.875 18.0002V7.50025C0.875 6.90351 1.11205 6.33121 1.53401 5.90926C1.95597 5.4873 2.52826 5.25025 3.125 5.25025H7.875" stroke="#CBD5E1" stroke-width="1.5" stroke-linecap="round" stroke-linejoin="round"/>
</svg>
