<svg width="17" height="22" viewBox="0 0 17 22" fill="none" xmlns="http://www.w3.org/2000/svg">
<path d="M12.249 5C12.249 5.99456 11.8539 6.94839 11.1507 7.65165C10.4474 8.35491 9.49356 8.75 8.499 8.75C7.50444 8.75 6.55061 8.35491 5.84735 7.65165C5.14409 6.94839 4.749 5.99456 4.749 5C4.749 4.00544 5.14409 3.05161 5.84735 2.34835C6.55061 1.64509 7.50444 1.25 8.499 1.25C9.49356 1.25 10.4474 1.64509 11.1507 2.34835C11.8539 3.05161 12.249 4.00544 12.249 5ZM1 19.118C1.03213 17.1504 1.83634 15.2742 3.23918 13.894C4.64202 12.5139 6.53109 11.7405 8.499 11.7405C10.4669 11.7405 12.356 12.5139 13.7588 13.894C15.1617 15.2742 15.9659 17.1504 15.998 19.118C13.6454 20.1968 11.0871 20.7535 8.499 20.75C5.823 20.75 3.283 20.166 1 19.118Z" stroke="#0F172A" stroke-width="1.5" stroke-linecap="round" stroke-linejoin="round"/>
</svg>
