<svg width="20" height="21" viewBox="0 0 20 21" fill="none" xmlns="http://www.w3.org/2000/svg">
<path d="M14.19 0.5H5.81C2.17 0.5 0 2.67 0 6.31V14.68C0 18.33 2.17 20.5 5.81 20.5H14.18C17.82 20.5 19.99 18.33 19.99 14.69V6.31C20 2.67 17.83 0.5 14.19 0.5ZM14.78 8.2L9.11 13.87C8.97 14.01 8.78 14.09 8.58 14.09C8.38 14.09 8.19 14.01 8.05 13.87L5.22 11.04C4.93 10.75 4.93 10.27 5.22 9.98C5.51 9.69 5.99 9.69 6.28 9.98L8.58 12.28L13.72 7.14C14.01 6.85 14.49 6.85 14.78 7.14C15.07 7.43 15.07 7.9 14.78 8.2Z" fill="#16A34A"/>
</svg>
