<svg width="22" height="19" viewBox="0 0 22 19" fill="none" xmlns="http://www.w3.org/2000/svg">
<path d="M16.2082 12.646C16.6759 12.3265 17.2246 12.1461 17.7907 12.1254C18.3568 12.1048 18.9172 12.2449 19.407 12.5294C19.8968 12.814 20.296 13.2314 20.5585 13.7334C20.821 14.2354 20.936 14.8014 20.8902 15.366C19.6903 15.7853 18.4159 15.9485 17.1492 15.845C17.1453 14.7116 16.8189 13.6018 16.2082 12.647C15.6661 11.7968 14.9183 11.097 14.034 10.6125C13.1497 10.128 12.1575 9.87432 11.1492 9.875C10.141 9.87448 9.14898 10.1282 8.26488 10.6127C7.38079 11.0973 6.63316 11.7969 6.09116 12.647M17.1482 15.844L17.1492 15.875C17.1492 16.1 17.1372 16.322 17.1122 16.541C15.2975 17.5821 13.2412 18.1283 11.1492 18.125C8.97915 18.125 6.94216 17.549 5.18616 16.541C5.16045 16.3096 5.14809 16.0769 5.14916 15.844M5.14916 15.844C3.88278 15.9513 2.60906 15.7887 1.41015 15.367C1.36451 14.8026 1.47955 14.2367 1.74198 13.7349C2.00442 13.2331 2.40352 12.8158 2.89316 12.5313C3.38279 12.2468 3.94295 12.1067 4.50887 12.1271C5.0748 12.1476 5.62337 12.3278 6.09116 12.647M5.14916 15.844C5.15275 14.7107 5.48078 13.6019 6.09116 12.647M14.1492 3.875C14.1492 4.67065 13.8331 5.43371 13.2705 5.99632C12.7079 6.55893 11.9448 6.875 11.1492 6.875C10.3535 6.875 9.59044 6.55893 9.02783 5.99632C8.46523 5.43371 8.14916 4.67065 8.14916 3.875C8.14916 3.07935 8.46523 2.31629 9.02783 1.75368C9.59044 1.19107 10.3535 0.875 11.1492 0.875C11.9448 0.875 12.7079 1.19107 13.2705 1.75368C13.8331 2.31629 14.1492 3.07935 14.1492 3.875ZM20.1492 6.875C20.1492 7.17047 20.091 7.46306 19.9779 7.73604C19.8648 8.00902 19.6991 8.25706 19.4901 8.46599C19.2812 8.67492 19.0332 8.84066 18.7602 8.95373C18.4872 9.0668 18.1946 9.125 17.8992 9.125C17.6037 9.125 17.3111 9.0668 17.0381 8.95373C16.7651 8.84066 16.5171 8.67492 16.3082 8.46599C16.0992 8.25706 15.9335 8.00902 15.8204 7.73604C15.7074 7.46306 15.6492 7.17047 15.6492 6.875C15.6492 6.27826 15.8862 5.70597 16.3082 5.28401C16.7301 4.86205 17.3024 4.625 17.8992 4.625C18.4959 4.625 19.0682 4.86205 19.4901 5.28401C19.9121 5.70597 20.1492 6.27826 20.1492 6.875ZM6.64916 6.875C6.64916 7.17047 6.59096 7.46306 6.47788 7.73604C6.36481 8.00902 6.19908 8.25706 5.99015 8.46599C5.78121 8.67492 5.53318 8.84066 5.26019 8.95373C4.98721 9.0668 4.69463 9.125 4.39916 9.125C4.10368 9.125 3.8111 9.0668 3.53812 8.95373C3.26513 8.84066 3.0171 8.67492 2.80816 8.46599C2.59923 8.25706 2.4335 8.00902 2.32043 7.73604C2.20735 7.46306 2.14916 7.17047 2.14916 6.875C2.14916 6.27826 2.38621 5.70597 2.80816 5.28401C3.23012 4.86205 3.80242 4.625 4.39916 4.625C4.99589 4.625 5.56819 4.86205 5.99015 5.28401C6.4121 5.70597 6.64916 6.27826 6.64916 6.875Z" stroke="#22C55E" stroke-width="1.5" stroke-linecap="round" stroke-linejoin="round"/>
</svg>
