<svg width="25" height="25" viewBox="0 0 25 25" fill="none" xmlns="http://www.w3.org/2000/svg">
<path d="M2.16113 12.822C2.09212 12.6146 2.09212 12.3904 2.16113 12.183C3.54813 8.01 7.48513 5 12.1251 5C16.7631 5 20.6981 8.007 22.0881 12.178C22.1581 12.385 22.1581 12.609 22.0881 12.817C20.7021 16.99 16.7651 20 12.1251 20C7.48713 20 3.55113 16.993 2.16113 12.822Z" stroke="#CBD5E1" stroke-width="1.5" stroke-linecap="round" stroke-linejoin="round"/>
<path d="M15.125 12.5C15.125 13.2956 14.8089 14.0587 14.2463 14.6213C13.6837 15.1839 12.9206 15.5 12.125 15.5C11.3294 15.5 10.5663 15.1839 10.0037 14.6213C9.44107 14.0587 9.125 13.2956 9.125 12.5C9.125 11.7044 9.44107 10.9413 10.0037 10.3787C10.5663 9.81607 11.3294 9.5 12.125 9.5C12.9206 9.5 13.6837 9.81607 14.2463 10.3787C14.8089 10.9413 15.125 11.7044 15.125 12.5Z" stroke="#CBD5E1" stroke-width="1.5" stroke-linecap="round" stroke-linejoin="round"/>
</svg>
