<svg width="22" height="19" viewBox="0 0 22 19" fill="none" xmlns="http://www.w3.org/2000/svg">
<path d="M15.7067 12.646C16.1745 12.3265 16.7232 12.1461 17.2893 12.1254C17.8553 12.1048 18.4157 12.2449 18.9055 12.5294C19.3953 12.814 19.7945 13.2314 20.057 13.7334C20.3195 14.2354 20.4345 14.8014 20.3887 15.366C19.1889 15.7853 17.9145 15.9485 16.6477 15.845C16.6438 14.7116 16.3174 13.6018 15.7067 12.647C15.1646 11.7968 14.4168 11.097 13.5325 10.6125C12.6482 10.128 11.656 9.87432 10.6477 9.875C9.63953 9.87448 8.64752 10.1282 7.76342 10.6127C6.87932 11.0973 6.13169 11.7969 5.58969 12.647M16.6467 15.844L16.6477 15.875C16.6477 16.1 16.6357 16.322 16.6107 16.541C14.7961 17.5821 12.7398 18.1283 10.6477 18.125C8.47769 18.125 6.44069 17.549 4.68469 16.541C4.65898 16.3096 4.64663 16.0769 4.64769 15.844M4.64769 15.844C3.38132 15.9513 2.1076 15.7887 0.90869 15.367C0.863041 14.8026 0.978085 14.2367 1.24052 13.7349C1.50295 13.2331 1.90206 12.8158 2.39169 12.5313C2.88132 12.2468 3.44149 12.1067 4.00741 12.1271C4.57333 12.1476 5.1219 12.3278 5.58969 12.647M4.64769 15.844C4.65128 14.7107 4.97931 13.6019 5.58969 12.647M13.6477 3.875C13.6477 4.67065 13.3316 5.43371 12.769 5.99632C12.2064 6.55893 11.4433 6.875 10.6477 6.875C9.85204 6.875 9.08898 6.55893 8.52637 5.99632C7.96376 5.43371 7.64769 4.67065 7.64769 3.875C7.64769 3.07935 7.96376 2.31629 8.52637 1.75368C9.08898 1.19107 9.85204 0.875 10.6477 0.875C11.4433 0.875 12.2064 1.19107 12.769 1.75368C13.3316 2.31629 13.6477 3.07935 13.6477 3.875ZM19.6477 6.875C19.6477 7.17047 19.5895 7.46306 19.4764 7.73604C19.3633 8.00902 19.1976 8.25706 18.9887 8.46599C18.7797 8.67492 18.5317 8.84066 18.2587 8.95373C17.9857 9.0668 17.6932 9.125 17.3977 9.125C17.1022 9.125 16.8096 9.0668 16.5367 8.95373C16.2637 8.84066 16.0156 8.67492 15.8067 8.46599C15.5978 8.25706 15.432 8.00902 15.319 7.73604C15.2059 7.46306 15.1477 7.17047 15.1477 6.875C15.1477 6.27826 15.3847 5.70597 15.8067 5.28401C16.2287 4.86205 16.801 4.625 17.3977 4.625C17.9944 4.625 18.5667 4.86205 18.9887 5.28401C19.4106 5.70597 19.6477 6.27826 19.6477 6.875ZM6.14769 6.875C6.14769 7.17047 6.08949 7.46306 5.97642 7.73604C5.86335 8.00902 5.69761 8.25706 5.48868 8.46599C5.27975 8.67492 5.03171 8.84066 4.75873 8.95373C4.48575 9.0668 4.19316 9.125 3.89769 9.125C3.60222 9.125 3.30964 9.0668 3.03665 8.95373C2.76367 8.84066 2.51563 8.67492 2.3067 8.46599C2.09777 8.25706 1.93203 8.00902 1.81896 7.73604C1.70589 7.46306 1.64769 7.17047 1.64769 6.875C1.64769 6.27826 1.88474 5.70597 2.3067 5.28401C2.72866 4.86205 3.30095 4.625 3.89769 4.625C4.49443 4.625 5.06672 4.86205 5.48868 5.28401C5.91064 5.70597 6.14769 6.27826 6.14769 6.875Z" stroke="#94A3B8" stroke-width="1.5" stroke-linecap="round" stroke-linejoin="round"/>
</svg>
