<svg width="19" height="22" viewBox="0 0 19 22" fill="none" xmlns="http://www.w3.org/2000/svg">
<path d="M12.615 8.25052L12.269 17.2505M7.481 17.2505L7.135 8.25052M17.103 5.04052C17.445 5.09252 17.785 5.14752 18.125 5.20652M17.103 5.04052L16.035 18.9235C15.9914 19.4887 15.7361 20.0167 15.32 20.4018C14.904 20.7868 14.3579 21.0007 13.791 21.0005H5.959C5.3921 21.0007 4.84602 20.7868 4.42998 20.4018C4.01394 20.0167 3.75859 19.4887 3.715 18.9235L2.647 5.04052M17.103 5.04052C15.9489 4.86604 14.7888 4.73362 13.625 4.64352M2.647 5.04052C2.305 5.09152 1.965 5.14652 1.625 5.20552M2.647 5.04052C3.80113 4.86604 4.96123 4.73362 6.125 4.64352M13.625 4.64352V3.72752C13.625 2.54752 12.715 1.56352 11.535 1.52652C10.4286 1.49116 9.32138 1.49116 8.215 1.52652C7.035 1.56352 6.125 2.54852 6.125 3.72752V4.64352M13.625 4.64352C11.1287 4.4506 8.62128 4.4506 6.125 4.64352" stroke="#CBD5E1" stroke-width="1.5" stroke-linecap="round" stroke-linejoin="round"/>
</svg>
