<svg width="21" height="21" viewBox="0 0 21 21" fill="none" xmlns="http://www.w3.org/2000/svg">
<path d="M16.3984 6V9M16.3984 9V12M16.3984 9H19.3984M16.3984 9H13.3984M11.1484 4.875C11.1484 5.77011 10.7929 6.62855 10.1599 7.26149C9.52699 7.89442 8.66854 8.25 7.77344 8.25C6.87833 8.25 6.01989 7.89442 5.38695 7.26149C4.75402 6.62855 4.39844 5.77011 4.39844 4.875C4.39844 3.97989 4.75402 3.12145 5.38695 2.48851C6.01989 1.85558 6.87833 1.5 7.77344 1.5C8.66854 1.5 9.52699 1.85558 10.1599 2.48851C10.7929 3.12145 11.1484 3.97989 11.1484 4.875ZM1.39844 17.735V17.625C1.39844 15.9342 2.07009 14.3127 3.26563 13.1172C4.46118 11.9216 6.08268 11.25 7.77344 11.25C9.46419 11.25 11.0857 11.9216 12.2812 13.1172C13.4768 14.3127 14.1484 15.9342 14.1484 17.625V17.734C12.2239 18.8931 10.019 19.5038 7.77244 19.5C5.44144 19.5 3.26044 18.855 1.39844 17.734V17.735Z" stroke="#94A3B8" stroke-width="1.5" stroke-linecap="round" stroke-linejoin="round"/>
</svg>
