<svg xmlns="http://www.w3.org/2000/svg" width="85" height="30" viewBox="0 0 85 30" fill="none">
  <path d="M59.0817 7.84166H53.0083V29.8291H59.0817V7.84166Z" fill="white"/>
  <path d="M59.0817 5.91969H53.0083V0H59.0817V5.91969Z" fill="white"/>
  <path d="M27.1001 29.6754V11.6856H48.9338V17.6053H33.0967V23.8325H48.9338V29.6754H27.1001Z" fill="white"/>
  <path d="M48.9338 5.9966H27.1001V0.0769043H48.9338V5.9966Z" fill="white"/>
  <path d="M6.57345 29.7522H0.5V13.3001C5.24088 13.3514 14.1076 13.377 14.7226 13.3001C15.3517 13.2215 16.0051 12.9827 16.2602 12.6851C16.7215 12.1469 16.8496 11.6344 16.9521 11.1475C17.1059 10.0712 16.9521 7.99545 16.9521 7.99545C16.9521 7.99545 16.7984 7.08828 16.1065 6.53475C15.7989 6.28873 14.9276 6.07347 14.4151 5.99659H0.5V0.0769043H14.4151C15.1327 0.102531 16.8445 0.27679 17.9516 0.768816C19.3354 1.38385 20.7442 2.7636 21.6418 3.99774C22.2568 4.84341 22.8718 7.04727 22.9487 7.99545C23.0512 8.55923 23.1947 10.5325 22.9487 12.3776C22.6412 14.6839 20.9498 16.529 19.4123 17.836C18.1822 18.8815 15.6452 19.2198 14.4151 19.3736H6.57345V29.7522Z" fill="white"/>
  <path d="M68.6148 21.6033H63.0026C63.0026 21.6033 62.9555 22.3553 63.0027 22.8333C63.0235 23.0446 63.0458 23.3925 63.0795 23.6021C63.1524 24.0556 63.1723 24.0866 63.3102 24.5247C63.4069 24.8322 63.4909 24.996 63.6177 25.2935C63.7862 25.6889 63.9374 25.9227 64.1558 26.2929C64.3634 26.6446 64.5034 26.83 64.7709 27.1386C65.1188 27.5399 65.3545 27.7306 65.7703 28.0611C66.1419 28.3565 66.3563 28.5197 66.7697 28.753C67.2263 29.0107 67.5077 29.11 67.9998 29.2912C68.6151 29.5178 68.9699 29.6308 69.6142 29.7524C70.1485 29.8533 70.4548 29.8845 70.9981 29.9062C72.92 29.9831 74.004 30.0718 75.9184 29.9062C76.4601 29.8594 76.7642 29.8317 77.3021 29.7524C77.9371 29.6589 78.2987 29.6186 78.9166 29.4449C79.6305 29.2443 80.0323 29.1053 80.6848 28.753C81.4404 28.3451 81.8496 28.057 82.453 27.4461C82.7826 27.1124 82.9716 26.9202 83.2218 26.5235C83.5669 25.9766 83.687 25.6151 83.8369 24.9859C83.9629 24.457 83.9552 24.1447 83.9906 23.6021C84.0415 22.8232 84.0457 22.3819 83.9906 21.6033C83.9544 21.0906 83.9559 20.7963 83.8369 20.2963C83.6871 19.6672 83.5474 19.3175 83.2218 18.7587C83.0373 18.4421 82.9152 18.274 82.6837 17.99C82.3618 17.595 82.1582 17.3867 81.7611 17.0674C81.3718 16.7542 81.121 16.6192 80.6848 16.3755C80.1924 16.1003 79.9015 15.9703 79.3779 15.7605C78.8491 15.5486 77.9941 15.2992 77.9941 15.2992L76.8409 14.9917L75.4571 14.6842L73.4582 14.3766L71.1518 13.9922L69.9986 13.6847C69.9986 13.6847 69.3763 13.492 69.0761 13.2235L69.0645 13.2131C68.8473 13.0188 68.7032 12.8899 68.6148 12.6084C68.5339 12.3506 68.5437 12.1772 68.6148 11.9165C68.6678 11.7222 68.7206 11.6133 68.8454 11.4552C69.0625 11.1805 69.291 11.1284 69.6142 10.994C69.9841 10.8401 70.22 10.8373 70.6137 10.7633C72.5318 10.4028 75.4571 10.6864 75.4571 10.6864C76.3796 10.8402 76.034 10.7739 76.3027 10.8402C76.6871 10.935 76.9946 11.0708 77.379 11.3015C77.7634 11.5321 77.8403 11.6859 77.9941 11.9165C77.9941 11.9165 78.1628 12.2702 78.2247 12.5315C78.287 12.7945 78.3016 13.2235 78.3016 13.2235H83.6062C83.6062 13.2235 83.7338 12.0411 83.6062 11.3015C83.4933 10.6465 83.3619 10.2831 83.0681 9.68701C82.8655 9.27594 82.453 8.68759 82.453 8.68759C82.453 8.68759 81.9984 7.97576 81.6074 7.61128C81.1627 7.19677 80.8307 7.06296 80.3004 6.76561C79.4443 6.28547 78.7065 5.92753 77.9941 5.76619C77.2816 5.60485 76.8752 5.53712 76.149 5.45867C75.7598 5.41664 75.1495 5.38179 75.1495 5.38179C75.1495 5.38179 72.4248 5.22451 70.6905 5.38179C70.1787 5.42821 69.8903 5.44959 69.3836 5.53555C68.4646 5.69149 67.945 5.81008 67.0772 6.15059C66.3898 6.42034 65.9763 6.55265 65.3859 6.99626C64.6882 7.52051 64.3786 7.94187 63.9252 8.68759C63.456 9.45935 63.2445 9.95221 63.0796 10.8402C62.9205 11.6962 63.0796 12.9928 63.0796 13.0697C63.0796 13.1466 63.1597 13.9729 63.3102 14.5304C63.4439 15.0257 63.5222 15.3121 63.7715 15.7605C64.0517 16.2645 64.295 16.4972 64.694 16.9137C65.0028 17.2359 65.5397 17.6824 65.5397 17.6824C65.9241 17.99 66.2316 18.1437 66.5391 18.2975C66.8466 18.4512 66.9235 18.4512 67.3848 18.605C67.8461 18.7588 68.661 19.0355 69.4605 19.22C70.2601 19.4045 70.9725 19.5788 71.2287 19.6044L73.9195 20.0657C74.2783 20.1426 75.1803 20.404 75.9184 20.527C76.2259 20.6038 76.5334 20.6108 76.9947 20.7576C77.4559 20.9044 77.7762 20.9651 78.071 21.142C78.4554 21.3726 78.4554 22.4308 78.4554 22.6027C78.4554 22.7565 78.3785 23.2946 77.9941 23.6021C77.7224 23.8195 77.3022 23.9353 76.9947 23.9865C74.8933 24.0122 70.5983 24.048 70.2293 23.9865C69.768 23.9096 69.4605 23.7559 69.153 23.6021C68.907 23.4791 68.6917 22.8333 68.6148 22.5258V21.6033Z" fill="white"/>
</svg>
